<svg id="SvgjsSvg1001" width="288" height="288" xmlns="http://www.w3.org/2000/svg" version="1.1" xmlns:xlink="http://www.w3.org/1999/xlink" xmlns:svgjs="http://svgjs.com/svgjs"><path id="SvgjsPath1017" d="M 144,0 C 5,0 0,5 0,144 0,283 5,288 144,288 283,288 288,283 288,144 288,5 283,0 144,0 Z" fill="#8102ca" transform="matrix(0.72,0,0,0.72,40.32000000000001,40.32000000000001)"></path><defs id="SvgjsDefs1002"></defs><g id="SvgjsG1008" transform="matrix(0.4652,0,0,0.4652,77.00734395580292,77.01504354858399)"><svg xmlns="http://www.w3.org/2000/svg" viewBox="0 0 20 20" width="288" height="288"><path fill="#f4ecff" d="M10 .4C4.697.4.399 4.698.399 10A9.6 9.6 0 0010 19.601c5.301 0 9.6-4.298 9.6-9.601 0-5.302-4.299-9.6-9.6-9.6zm-.001 17.2a7.6 7.6 0 110-15.2 7.6 7.6 0 110 15.2zM12 6H8v4H5.5l4.5 4.5 4.5-4.5H12V6z" class="coloredf5fe svgShape"></path></svg></g></svg>